<svg class="svg-icon" style="width: 1em; height: 1em;vertical-align: middle;fill: currentColor;overflow: hidden;" viewBox="0 0 1024 1024" version="1.1" xmlns="http://www.w3.org/2000/svg"><path d="M512.078 126.2c149.043 0 270.483 117.76 270.483 263.122 0 101.2-150.884 325.677-270.483 476.559C394.319 716.839 241.6 490.521 241.6 389.321 241.6 243.959 363.041 126.2 512.078 126.2M512.078 71C331.762 71 186.4 214.522 186.4 389.321c0 176.641 325.678 564.878 325.678 564.878S837.76 565.962 837.76 389.321C837.76 214.522 692.399 71 512.078 71L512.078 71 512.078 71zM512.078 71"  /><path d="M512.078 312.042c20.239 0 38.645 16.559 38.645 38.64 0 22.081-16.564 38.64-38.645 38.64-22.075 0-38.64-16.559-38.64-38.64C473.438 328.601 491.843 312.042 512.078 312.042M512.078 256.842c-51.518 0-93.838 42.317-93.838 93.84 0 51.518 42.32 93.838 93.838 93.838 51.521 0 93.843-42.32 93.843-93.838C605.921 299.159 563.6 256.842 512.078 256.842L512.078 256.842 512.078 256.842zM512.078 256.842"  /></svg>