<svg class="svg-icon" style="width: 1.0009765625em; height: 1em;vertical-align: middle;fill: currentColor;overflow: hidden;" viewBox="0 0 1025 1024" version="1.1" xmlns="http://www.w3.org/2000/svg"><path d="M511.308498 958.895809c-246.714723 0-447.417311-200.702588-447.417311-447.423311 0-246.714723 200.702588-447.417311 447.417311-447.417311 246.721723 0 447.423311 200.702588 447.423311 447.417311C958.731809 758.194221 758.029221 958.895809 511.308498 958.895809L511.308498 958.895809zM511.308498 128.259376c-211.307619 0-383.213123 171.905504-383.213123 383.213123 0 211.279619 171.905504 383.219123 383.213123 383.219123 211.279619 0 383.219123-171.939504 383.219123-383.219123C894.527621 300.165879 722.588117 128.259376 511.308498 128.259376L511.308498 128.259376zM511.308498 128.259376"  /><path d="M685.154007 718.460105c12.867038-7.165021 24.904073-14.442042 34.737102-21.718064 1.105003-0.850002 5.970017-4.245012 7.174021-5.229015 5.453016-4.510013 8.994026-11.311033 8.994026-18.951056 0-7.278021-3.171009-13.861041-8.260024-18.216053l-100.250294-82.629242c-4.129012-3.38001-9.462028-5.446016-15.297045-5.446016-6.559019 0-12.512037 2.533007-16.892049 6.655019-1.704005 1.704005-16.757049 17.12905-16.757049 17.12905-10.439031 10.464031-27.33408 10.464031-37.773111 0L438.533285 487.652429c-10.446031-10.439031-10.446031-27.45408 0-37.893111l16.644049-16.653049c4.372013-4.362013 6.92302-10.439031 6.92302-16.98005 0-6.576019-2.551007-12.409036-6.68202-16.781049l-85.878252-103.750304c-4.493013-5.357016-11.295033-8.866026-18.830055-8.866026-8.012023 0-15.055044 3.880011-19.556057 9.834029l-1.470004 1.937006c-18.707055 25.276074-43.120126 65.379192-43.120126 103.032302 0 103.758304 231.306678 334.692981 334.079979 334.692981 1.938006 0 3.866011-0.137 5.705017-0.137C653.011913 733.94115 673.276972 725.090124 685.154007 718.460105L685.154007 718.460105zM685.154007 718.460105"  /></svg>